Coordinates
version=1
nRows=24
nColumns=24
inDegrees=yes

Units are S.I. units (second, meters, Newtons, ...)
Angles are in degrees.

endheader
time	pelvis_tilt	pelvis_list	pelvis_rotation	pelvis_tx	pelvis_ty	pelvis_tz	hip_flexion_r	hip_adduction_r	hip_rotation_r	knee_angle_r	ankle_angle_r	subtalar_angle_r	mtp_angle_r	hip_flexion_l	hip_adduction_l	hip_rotation_l	knee_angle_l	ankle_angle_l	subtalar_angle_l	mtp_angle_l	lumbar_extension	lumbar_bending	lumbar_rotation
      1.64000000	     65.41302642	      4.39672879	     -1.56358540	      0.76839955	      1.02721962	     -0.28838340	      0.11091821	     -9.58498103	     -2.49237480	    -59.67066582	     17.49601875	     -9.49963923	    -42.90753402	     -1.25558017	     -2.34721492	    -13.13366730	    -66.58473293	     11.76337306	     -5.18015159	 -12000.60029535	      0.00000000	      0.00000000	      0.00000000
      1.65000000	     65.44006962	      4.40431545	     -1.56725847	      0.76852929	      1.02733986	     -0.28849687	      0.02817626	     -9.60641327	     -2.40083755	    -58.46132422	     18.00990300	     -9.29050185	    -40.27535962	     -1.26521929	     -2.43963317	    -13.04912262	    -66.46169862	     11.27147229	     -5.01061420	 -13051.99088940	      0.00000000	      0.00000000	      0.00000000
      1.66000000	     65.45170993	      4.39622583	     -1.54369991	      0.76853375	      1.02737689	     -0.28850982	     -0.05120185	     -9.63127402	     -2.33577416	    -57.22573652	     18.26292225	     -9.24002464	    -38.42122808	     -1.28197407	     -2.46893868	    -13.02809860	    -66.49556134	     11.06430726	     -4.69618767	 -14137.01641919	      0.00000000	      0.00000000	      0.00000000
      1.67000000	     65.44479473	      4.37787267	     -1.50470786	      0.76841509	      1.02735739	     -0.28841874	     -0.12573913	     -9.65854658	     -2.30023465	    -55.98234525	     18.20670075	     -9.37661352	    -37.50653887	     -1.30624875	     -2.43659306	    -13.06051140	    -66.66865280	     11.21322570	     -4.30897022	 -15255.34311640	      0.00000000	      0.00000000	      0.00000000
      1.68000000	     65.44176324	      4.37085199	     -1.47908287	      0.76826839	      1.02749890	     -0.28836464	     -0.19517712	     -9.69922979	     -2.28680164	    -54.75688857	     17.84484302	     -9.70108400	    -37.55492093	     -1.30992926	     -2.39188014	    -13.10817033	    -66.90018567	     11.67472834	     -3.94750297	 -16406.62002827	      0.00000000	      0.00000000	      0.00000000
      1.69000000	     65.45975393	      4.38596285	     -1.48403992	      0.76824124	      1.02766797	     -0.28846269	     -0.25192291	     -9.76025164	     -2.28316248	    -53.57326308	     17.23231202	    -10.18589813	    -38.45335262	     -1.27861888	     -2.38039644	    -13.13326443	    -67.09388034	     12.29878790	     -3.70087948	 -17590.48368869	      0.00000000	      0.00000000	      0.00000000
      1.70000000	     65.49048699	      4.40635439	     -1.50810744	      0.76830812	      1.02760070	     -0.28860110	     -0.27915435	     -9.83137917	     -2.28085568	    -52.44928550	     16.46295774	    -10.77776580	    -39.97341669	     -1.23574125	     -2.40089525	    -13.12353011	    -67.18836177	     12.87362971	     -3.61762512	 -18806.55922794	      0.00000000	      0.00000000	      0.00000000
      1.71000000	     65.51503448	      4.40565206	     -1.52682274	      0.76831230	      1.02748785	     -0.28864935	     -0.26026003	     -9.89031690	     -2.27995075	    -51.39976173	     15.64959956	    -11.40449847	    -41.80903923	     -1.21910053	     -2.41953968	    -13.08881821	    -67.16842360	     13.19520289	     -3.69585611	 -20054.45850572	      0.00000000	      0.00000000	      0.00000000
      1.72000000	     65.51982034	      4.37224499	     -1.52776739	      0.76817988	      1.02761105	     -0.28859739	     -0.19128816	     -9.92229679	     -2.28686329	    -50.44236934	     14.90294313	    -11.98601362	    -43.62475986	     -1.25059393	     -2.41340144	    -13.03978535	    -67.04533178	     13.13212576	     -3.89203449	 -21333.77640449	      0.00000000	      0.00000000	      0.00000000
      1.73000000	     65.50182683	      4.31559243	     -1.51956968	      0.76796784	      1.02775137	     -0.28843733	     -0.08573446	     -9.93494884	     -2.30889099	    -49.59877734	     14.31439575	    -12.44772052	    -45.10710537	     -1.32341971	     -2.39435071	    -12.97537151	    -66.83819777	     12.66586449	     -4.13775948	 -22644.08720113	      0.00000000	      0.00000000	      0.00000000
      1.74000000	     65.47836796	      4.26362891	     -1.52527255	      0.76786772	      1.02762782	     -0.28829682	      0.03249336	     -9.95215517	     -2.35146601	    -48.88727444	     13.94517813	    -12.73352863	    -46.01120415	     -1.39898374	     -2.39989022	    -12.88915760	    -66.57196688	     11.89830505	     -4.35752481	 -23984.94344109	      0.00000000	      0.00000000	      0.00000000
      1.75000000	     65.47512044	      4.24087556	     -1.55839016	      0.76797635	      1.02744123	     -0.28833037	      0.14331163	     -9.99234534	     -2.41908438	    -48.31190901	     13.82164634	    -12.81586179	    -46.19554585	     -1.43375380	     -2.44871793	    -12.79064734	    -66.29491382	     11.02091694	     -4.48234464	 -25355.87904688	      0.00000000	      0.00000000	      0.00000000
      1.76000000	     65.49362795	      4.24443370	     -1.60355844	      0.76814337	      1.02741166	     -0.28844593	      0.24039102	    -10.05377767	     -2.51558578	    -47.85817740	     13.93532915	    -12.70071460	    -45.63966327	     -1.42158972	     -2.50849197	    -12.71470857	    -66.08518190	     10.25404705	     -4.46217837	 -26756.41722578	      0.00000000	      0.00000000	      0.00000000
      1.77000000	     65.51027831	      4.25304305	     -1.63052526	      0.76818967	      1.02737192	     -0.28846277	      0.32868695	    -10.12072188	     -2.64125280	    -47.49971037	     14.24609883	    -12.42636659	    -44.44223838	     -1.39230024	     -2.52491614	    -12.69984785	    -66.01548769	      9.78492824	     -4.28220553	 -28186.08208097	      0.00000000	      0.00000000	      0.00000000
      1.78000000	     65.50947543	      4.25333994	     -1.62515304	      0.76804916	      1.02722327	     -0.28833239	      0.41382628	    -10.18091899	     -2.78922233	    -47.21030118	     14.68775761	    -12.05536613	    -42.80039044	     -1.36808522	     -2.47767419	    -12.75665177	    -66.10075014	      9.72652534	     -3.97469704	 -29644.41037294	      0.00000000	      0.00000000	      0.00000000
      1.79000000	     65.50235273	      4.25095503	     -1.60239318	      0.76779044	      1.02723234	     -0.28817425	      0.49554737	    -10.23352424	     -2.94527342	    -46.97147089	     15.17635486	    -11.66129163	    -40.97412408	     -1.33899863	     -2.40123068	    -12.85723948	    -66.27862169	     10.09914358	     -3.61243530	 -31130.95811288	      0.00000000	      0.00000000	      0.00000000
      1.80000000	     65.50588454	      4.25736163	     -1.58891972	      0.76762114	      1.02751453	     -0.28818467	      0.57080158	    -10.28041045	     -3.09191131	    -46.77092420	     15.62178809	    -11.31386862	    -39.24233776	     -1.28868420	     -2.35107652	    -12.95499547	    -66.44505250	     10.83238909	     -3.28160142	 -32645.29722776	      0.00000000	      0.00000000	      0.00000000
      1.81000000	     65.51386987	      4.26819284	     -1.59490962	      0.76766687	      1.02768795	     -0.28835756	      0.63835244	    -10.31499433	     -3.21365754	    -46.59640803	     15.94215022	    -11.06680156	    -37.85790914	     -1.23041891	     -2.34977145	    -13.01849279	    -66.51870997	     11.79010531	     -3.04866592	 -34187.00003729	      0.00000000	      0.00000000	      0.00000000
      1.82000000	     65.50697970	      4.26544376	     -1.60893602	      0.76778400	      1.02751504	     -0.28842561	      0.69574426	    -10.32499527	     -3.29994670	    -46.43302588	     16.07844723	    -10.95123500	    -37.00912027	     -1.19631296	     -2.37349001	    -13.04851207	    -66.47961294	     12.81312608	     -2.94095610	 -35755.61190344	      0.00000000	      0.00000000	      0.00000000
      1.83000000	     65.48389964	      4.24483589	     -1.61962096	      0.76781959	      1.02726833	     -0.28827663	      0.73244940	    -10.30693419	     -3.34529544	    -46.26699702	     16.00597129	    -10.97484191	    -36.79325403	     -1.19874078	     -2.39051427	    -13.06477696	    -66.35866696	     13.75571369	     -2.94732155	 -37350.61401370	      0.00000000	      0.00000000	      0.00000000
      1.84000000	     65.46259261	      4.22413176	     -1.62879428	      0.76780589	      1.02712455	     -0.28806467	      0.73037672	    -10.27415501	     -3.34924568	    -46.09218901	     15.73870386	    -11.12426309	    -37.20590509	     -1.22334357	     -2.39079080	    -13.08627511	    -66.20797764	     14.49691101	     -3.02986392	 -38971.37937747	      0.00000000	      0.00000000	      0.00000000
      1.85000000	     65.46338263	      4.22528186	     -1.64373945	      0.76783090	      1.02699995	     -0.28797987	      0.67494547	    -10.24650714	     -3.31757098	    -45.91449818	     15.32501040	    -11.36865174	    -38.14681510	     -1.24817156	     -2.37848922	    -13.12483608	    -66.07623253	     14.93559391	     -3.13886449	 -40617.12661236	      0.00000000	      0.00000000	      0.00000000
      1.86000000	     65.49656473	      4.25463595	     -1.66392101	      0.76788296	      1.02703979	     -0.28811922	      0.56808743	    -10.23176214	     -3.26279478	    -45.75211457	     14.83603414	    -11.66395856	    -39.44030887	     -1.26276792	     -2.35190793	    -13.18708583	    -65.99173197	     14.98617729	     -3.22772389	 -42286.87727304	      0.00000000	      0.00000000	      0.00000000
      1.87000000	     65.54805698	      4.29105031	     -1.67421271	      0.76779632	      1.02743324	     -0.28829632	      0.43149722	    -10.21951659	     -3.20080439	    -45.63236388	     14.35066422	    -11.95896561	    -40.86622382	     -1.28429312	     -2.29468282	    -13.27440158	    -65.95380073	     14.58501156	     -3.26465673	 -43979.42257252	      0.00000000	      0.00000000	      0.00000000
